<svg id="Layer_1" data-name="Layer 1" xmlns="http://www.w3.org/2000/svg" viewBox="0 0 472 82"><defs><style>.cls-1{fill:#ed4b4b;}.cls-2{fill:#ee6449;}.cls-3{fill:#f18e48;}.cls-4{fill:#efe748;}.cls-5{fill:#f6ef7e;}.cls-6{fill:#805c54;}.cls-7{fill:#c98b61;}.cls-8{fill:#010101;}</style></defs><title>Banner</title><rect class="cls-1" x="99.9" y="8.6" width="44.8" height="11.65" rx="1.9" ry="1.9"/><rect class="cls-2" x="99.9" y="24" width="44.8" height="11.65" rx="1.9" ry="1.9"/><rect class="cls-3" x="99.9" y="39.4" width="44.8" height="11.65" rx="1.9" ry="1.9"/><rect class="cls-4" x="99.9" y="54.8" width="44.8" height="11.65" rx="1.9" ry="1.9"/><rect class="cls-5" x="99.9" y="70.2" width="44.8" height="11.65" rx="1.9" ry="1.9"/><path class="cls-6" d="M112.7,44.5a92.2,92.2,0,0,0,32,30.7v6.6H16.5V75.2A93.4,93.4,0,0,0,48.6,44.5Z"/><path class="cls-7" d="M112.7,44.7l-5.9,13.2a5.4,5.4,0,0,1-4.6,3.2,5.5,5.5,0,0,1-5.1-2.4l-.5-.8a5.6,5.6,0,0,0-9.4.4l-1.8,3.1a5.5,5.5,0,0,1-9.6,0L74,58.3a5.3,5.3,0,0,0-4.6-2.8,5.5,5.5,0,0,0-4.8,2.4l-.5.8A5.4,5.4,0,0,1,59,61.1a5.6,5.6,0,0,1-4.6-3.2L48.6,44.7A77.8,77.8,0,0,0,60.6.2l9,7.1L71.8,9,80.6.2,89.5,9l2.2-1.7L100.6.2a78.6,78.6,0,0,0,12.1,44.5Z"/><path class="cls-8" d="M163.5,37.6l.2.9h.1l.2-.9,5.1-18.7h6.2L167,44.5h-6.4l-8.3-25.6h6.2Z"/><path class="cls-8" d="M175.4,34.8a10.3,10.3,0,0,1,2.4-7,9.9,9.9,0,0,1,13.6,0,10.3,10.3,0,0,1,2.4,7v.4a10.1,10.1,0,0,1-2.4,7,9.9,9.9,0,0,1-13.6,0,10.1,10.1,0,0,1-2.4-7Zm5.9.4a8.2,8.2,0,0,0,.8,3.8,2.6,2.6,0,0,0,2.5,1.3,2.5,2.5,0,0,0,2.5-1.4,7.5,7.5,0,0,0,.8-3.7v-.4a7.8,7.8,0,0,0-.8-3.7,2.9,2.9,0,0,0-5,0,8.1,8.1,0,0,0-.8,3.7Z"/><path class="cls-8" d="M202.6,44.5h-5.9V17.1h5.9Z"/><path class="cls-8" d="M214.4,40.3a2.4,2.4,0,0,0,1.8-.6,3,3,0,0,0,.6-2h5.4v.2a6.3,6.3,0,0,1-2.2,5,9.4,9.4,0,0,1-12.4-.7,10.5,10.5,0,0,1-2.3-7v-.4a10.7,10.7,0,0,1,2.3-7,8.5,8.5,0,0,1,6.7-2.7,8.1,8.1,0,0,1,5.8,2.1,7.1,7.1,0,0,1,2.1,5.5h-5.5a3.6,3.6,0,0,0-.6-2.2,2,2,0,0,0-1.8-.9,2.4,2.4,0,0,0-2.4,1.4,7.9,7.9,0,0,0-.7,3.7v.4A8.1,8.1,0,0,0,212,39,2.3,2.3,0,0,0,214.4,40.3Z"/><path class="cls-8" d="M235.7,44.5a9.8,9.8,0,0,1-.6-1.4,8,8,0,0,1-.3-1.5,8,8,0,0,1-2,2.4,4.4,4.4,0,0,1-2.9.9,6.4,6.4,0,0,1-4.7-1.6,5.3,5.3,0,0,1-1.6-4.1,5.1,5.1,0,0,1,2.1-4.4,11.3,11.3,0,0,1,6.5-1.6h2.4V31.9A2.9,2.9,0,0,0,234,30a2.4,2.4,0,0,0-1.8-.6,1.8,1.8,0,0,0-1.5.5,2.1,2.1,0,0,0-.5,1.5h-5.8v-.2a4.8,4.8,0,0,1,2.2-4.3,9.3,9.3,0,0,1,6-1.8,8.9,8.9,0,0,1,5.8,1.8,6.3,6.3,0,0,1,2.1,5v7.2a12.7,12.7,0,0,0,.3,2.8,11.2,11.2,0,0,0,.8,2.6Zm-4.2-3.9a3,3,0,0,0,1.9-.5,2.3,2.3,0,0,0,1.2-1.2V36.4h-2.4a2.4,2.4,0,0,0-2,.7,2.2,2.2,0,0,0-.7,1.7,1.5,1.5,0,0,0,.6,1.3A1.6,1.6,0,0,0,231.5,40.6Z"/><path class="cls-8" d="M249.3,25.5l.2,2.7a7.2,7.2,0,0,1,2.3-2.3,6.1,6.1,0,0,1,3-.8,5.5,5.5,0,0,1,4.4,1.9c1.1,1.3,1.6,3.3,1.6,6.1V44.5h-6V33.1a4.2,4.2,0,0,0-.5-2.6,2.1,2.1,0,0,0-1.7-.8,3.1,3.1,0,0,0-1.7.4,3.8,3.8,0,0,0-1.3.9V44.5h-5.9v-19Z"/><path class="cls-8" d="M270.2,21.1h-5.9v-4h5.9Zm0,23.4h-5.9v-19h5.9Z"/><path class="cls-8" d="M282,40.3a2.4,2.4,0,0,0,1.8-.6,3,3,0,0,0,.6-2h5.4v.2a6.3,6.3,0,0,1-2.2,5,9.4,9.4,0,0,1-12.4-.7,10.5,10.5,0,0,1-2.3-7v-.4a10.7,10.7,0,0,1,2.3-7,8.5,8.5,0,0,1,6.7-2.7,8.1,8.1,0,0,1,5.8,2.1,7.1,7.1,0,0,1,2.1,5.5h-5.5a3.6,3.6,0,0,0-.6-2.2,2,2,0,0,0-1.8-.9,2.4,2.4,0,0,0-2.4,1.4,7.9,7.9,0,0,0-.7,3.7v.4a8.1,8.1,0,0,0,.7,3.8A2.4,2.4,0,0,0,282,40.3Z"/><path class="cls-8" d="M315,39.5h-7.6l-1.5,5h-6.2L308,18.9h6.4l8.4,25.6h-6.3ZM308.8,35h4.8l-2.3-8h-.1Z"/><path class="cls-8" d="M330.5,44.5h-6V17.1h6Z"/><path class="cls-8" d="M342.5,44.9a8.9,8.9,0,0,1-6.7-2.6,9.3,9.3,0,0,1-2.5-6.7V35a10.8,10.8,0,0,1,2.3-7.1,8.2,8.2,0,0,1,6.7-2.8,7.8,7.8,0,0,1,6,2.3,9.3,9.3,0,0,1,2.1,6.4v3.1H339.5a3.4,3.4,0,0,0,1.1,2.4,3.8,3.8,0,0,0,2.8.9,11.4,11.4,0,0,0,2.8-.3l2.6-.9,1.4,3.7a10.2,10.2,0,0,1-3.3,1.5A15.6,15.6,0,0,1,342.5,44.9Zm-.2-15.2a2.6,2.6,0,0,0-2.1.9,5.3,5.3,0,0,0-.8,2.5h5.2v-.5a4.2,4.2,0,0,0-.5-2.2A2.2,2.2,0,0,0,342.3,29.7Z"/><path class="cls-8" d="M363.4,30.6h-1.9a4.3,4.3,0,0,0-1.7.4,2.4,2.4,0,0,0-.9,1.1V44.5h-6v-19h5.6l.2,2.8a5,5,0,0,1,1.6-2.3,3.3,3.3,0,0,1,2.3-.9h.7l.7.2Z"/><path class="cls-8" d="M372.7,20.8v4.7h3v4.1h-3v8.7a2.7,2.7,0,0,0,.4,1.5,1.6,1.6,0,0,0,1.2.4h1.4l.4,4.4-1.6.3h-1.7a5.8,5.8,0,0,1-4.5-1.6c-1-1-1.5-2.7-1.5-4.9V29.6h-2.7V25.5h2.7V20.8Z"/><path class="cls-8" d="M393.9,39.9h11v4.6h-17V18.9h6Z"/><path class="cls-8" d="M416.1,44.9a8.7,8.7,0,0,1-6.7-2.6,9.3,9.3,0,0,1-2.5-6.7V35a10.8,10.8,0,0,1,2.3-7.1,8.2,8.2,0,0,1,6.7-2.8,7.8,7.8,0,0,1,6,2.3,9.3,9.3,0,0,1,2.1,6.4v3.1H413.1a3,3,0,0,0,1.1,2.4,3.7,3.7,0,0,0,2.7.9,11.7,11.7,0,0,0,2.9-.3l2.6-.9,1.4,3.7a10.2,10.2,0,0,1-3.3,1.5A15.6,15.6,0,0,1,416.1,44.9Zm-.2-15.2a2.6,2.6,0,0,0-2.1.9,4.4,4.4,0,0,0-.8,2.5h5.2v-.5a4.2,4.2,0,0,0-.5-2.2A2.2,2.2,0,0,0,415.9,29.7Z"/><path class="cls-8" d="M433.4,36.7l.3,2h.1l.4-2,2.5-11.2H443l-6.2,19h-6l-6.2-19h6.2Z"/><path class="cls-8" d="M453,44.9a9,9,0,0,1-6.8-2.6,9.7,9.7,0,0,1-2.4-6.7V35a10.3,10.3,0,0,1,2.3-7.1c1.5-1.9,3.7-2.8,6.7-2.8a7.8,7.8,0,0,1,5.9,2.3,9.3,9.3,0,0,1,2.1,6.4v3.1H449.9a3.8,3.8,0,0,0,1.1,2.4,4.1,4.1,0,0,0,2.8.9,10.9,10.9,0,0,0,2.8-.3l2.6-.9,1.5,3.7a12,12,0,0,1-3.4,1.5A14.9,14.9,0,0,1,453,44.9Zm-.2-15.2a2.3,2.3,0,0,0-2.1.9,3.7,3.7,0,0,0-.8,2.5H455v-.5a3.4,3.4,0,0,0-.5-2.2A1.9,1.9,0,0,0,452.8,29.7Z"/><path class="cls-8" d="M469.6,44.5h-6V17.1h6Z"/><path class="cls-8" d="M154,66.1V53.3h3.5a7.2,7.2,0,0,1,2.2.4,5.7,5.7,0,0,1,1.8,1.2,7.8,7.8,0,0,1,1.1,1.8,6.7,6.7,0,0,1,.4,2.4v1.2a6.1,6.1,0,0,1-.4,2.4,7.8,7.8,0,0,1-1.1,1.8,5.7,5.7,0,0,1-1.8,1.2,5.4,5.4,0,0,1-2.2.4Zm1-11.9v11h2.5a3.7,3.7,0,0,0,1.8-.4,2.8,2.8,0,0,0,1.4-1,3.8,3.8,0,0,0,.9-1.5,6.4,6.4,0,0,0,.3-2V59.1a6.4,6.4,0,0,0-.3-2,3.8,3.8,0,0,0-.9-1.5,2.8,2.8,0,0,0-1.4-1,4.8,4.8,0,0,0-1.8-.4Z"/><path class="cls-8" d="M171.5,66.1c-.1-.1-.1-.3-.1-.6a1.7,1.7,0,0,1-.1-.7l-.6.6-.7.4-.9.4h-1l-1.3-.2a2.1,2.1,0,0,1-1-.6l-.6-.8a4.3,4.3,0,0,1-.2-1.1,2.8,2.8,0,0,1,.3-1.3,3.8,3.8,0,0,1,.9-.9,2.6,2.6,0,0,1,1.3-.6l1.8-.2h2V59.5a2.1,2.1,0,0,0-.6-1.6,2.9,2.9,0,0,0-1.9-.6l-1,.2a2,2,0,0,0-.8.4l-.5.6a1,1,0,0,0-.2.7h-1.1a1.9,1.9,0,0,1,.3-1l.7-.9a2.7,2.7,0,0,1,1.2-.6,3.3,3.3,0,0,1,1.5-.3l1.4.2a3.9,3.9,0,0,1,1.1.6,3.6,3.6,0,0,1,.7,1,5.1,5.1,0,0,1,.2,1.3v5.1a1.3,1.3,0,0,1,.1.6v.4c0,.2.1.3.1.4h-1.1Zm-3.3-.7,1-.2a1.9,1.9,0,0,0,.9-.4l.7-.6a1.8,1.8,0,0,0,.5-.7V61.4H168a3.1,3.1,0,0,0-1,.5,1.4,1.4,0,0,0-.7.6,2.3,2.3,0,0,0-.1,1.6.9.9,0,0,0,.4.6l.7.4Z"/><path class="cls-8" d="M180.8,63.7a1.3,1.3,0,0,0-.1-.6.7.7,0,0,0-.4-.5,1.3,1.3,0,0,0-.7-.5l-1.3-.4-1.4-.4-1.1-.5a1.6,1.6,0,0,1-.6-.8,1.6,1.6,0,0,1-.2-1,1.8,1.8,0,0,1,.2-1,2.7,2.7,0,0,1,.7-.8l1-.6,1.4-.2,1.5.2,1.1.6.7.9a2.5,2.5,0,0,1,.2,1.2h-1a2.4,2.4,0,0,0-.2-.8l-.5-.6-.7-.4-1.1-.2-1,.2c-.3.1-.6.2-.7.4a1.2,1.2,0,0,0-.5.5c0,.2-.1.4-.1.6s.1.4.1.6l.4.4.8.5,1.3.3,1.4.5a2,2,0,0,1,1.1.6,1.9,1.9,0,0,1,.6.7,3.6,3.6,0,0,1,.2,1,2,2,0,0,1-.3,1.1,2.8,2.8,0,0,1-.7.9,2.8,2.8,0,0,1-1.1.5l-1.4.2-1.6-.2a3.5,3.5,0,0,1-1.2-.7,2.2,2.2,0,0,1-.7-.9,1.9,1.9,0,0,1-.3-1h1.1a1.6,1.6,0,0,0,.3.9l.6.6.9.3h1.9l.8-.4.5-.6A1.3,1.3,0,0,0,180.8,63.7Z"/><path class="cls-8" d="M185.3,58.2a2,2,0,0,1,.6-.7l.7-.6a1.9,1.9,0,0,1,.8-.3l1-.2,1.3.2.9.6a2.4,2.4,0,0,1,.6,1.1,7.8,7.8,0,0,1,.2,1.6v6.2h-1V59.9a3.7,3.7,0,0,0-.2-1.2,2,2,0,0,0-.4-.8l-.7-.4-1-.2-1,.2-.8.5-.6.8a2,2,0,0,0-.4.8v6.5h-1.1V52.6h1.1Z"/><path class="cls-8" d="M201.8,61.5a5.8,5.8,0,0,1-.3,1.9,3.5,3.5,0,0,1-.7,1.5,2.6,2.6,0,0,1-1.1,1,2.8,2.8,0,0,1-1.5.4,3.4,3.4,0,0,1-1.8-.4,4.5,4.5,0,0,1-1.3-1.1v1.3h-1V52.6h1.1V58a3.4,3.4,0,0,1,1.2-1.2,4.3,4.3,0,0,1,1.7-.4,2.9,2.9,0,0,1,1.6.4,2.6,2.6,0,0,1,1.1,1,3.5,3.5,0,0,1,.7,1.5,6,6,0,0,1,.3,2Zm-1.1-.2a8.1,8.1,0,0,0-.1-1.6,3.3,3.3,0,0,0-.5-1.2,3.8,3.8,0,0,0-.9-.9,2.5,2.5,0,0,0-1.3-.3l-1,.2-.8.4-.6.7-.3.7v4.3a2.5,2.5,0,0,0,.4.7,1.7,1.7,0,0,0,.6.6,1.9,1.9,0,0,0,.8.3l1,.2a2.7,2.7,0,0,0,1.2-.3l.9-.8a5,5,0,0,0,.5-1.3,7.6,7.6,0,0,0,.1-1.5Z"/><path class="cls-8" d="M203.5,61.2a5.8,5.8,0,0,1,.3-1.9,3.8,3.8,0,0,1,.9-1.5,3.2,3.2,0,0,1,1.3-1,4.8,4.8,0,0,1,1.8-.4,4.7,4.7,0,0,1,1.7.4,4.5,4.5,0,0,1,1.4,1,5.3,5.3,0,0,1,.8,1.5,5.8,5.8,0,0,1,.3,1.9v.3a5.8,5.8,0,0,1-.3,1.9,5.3,5.3,0,0,1-.8,1.5,4.5,4.5,0,0,1-3.1,1.4,3.4,3.4,0,0,1-1.8-.4,3.1,3.1,0,0,1-1.3-1,3.8,3.8,0,0,1-.9-1.5,5.8,5.8,0,0,1-.3-1.9Zm1.1.3a3.9,3.9,0,0,0,.2,1.5,2.3,2.3,0,0,0,.6,1.2,2.8,2.8,0,0,0,1,.9,3.2,3.2,0,0,0,1.4.3,2.8,2.8,0,0,0,1.3-.3,2.2,2.2,0,0,0,1-.9,3.5,3.5,0,0,0,.7-1.2,7.7,7.7,0,0,0,.2-1.5v-.3a5.9,5.9,0,0,0-.2-1.4,5.4,5.4,0,0,0-.7-1.3c-.2-.4-.6-.6-1-.9a2.8,2.8,0,0,0-1.3-.3,2.9,2.9,0,0,0-1.4.3,4.3,4.3,0,0,0-1,.9,3.1,3.1,0,0,0-.6,1.3,3.2,3.2,0,0,0-.2,1.4Z"/><path class="cls-8" d="M220.2,66.1c-.1-.1-.1-.3-.2-.6v-.7l-.6.6-.7.4-.9.4h-1l-1.3-.2a2.1,2.1,0,0,1-1-.6l-.6-.8a4.3,4.3,0,0,1-.2-1.1,2.8,2.8,0,0,1,.3-1.3l.8-.9a3.5,3.5,0,0,1,1.4-.6l1.8-.2h2V59.5a1.9,1.9,0,0,0-.7-1.6,2.4,2.4,0,0,0-1.8-.6l-1,.2-.8.4-.5.6a1,1,0,0,0-.2.7h-1.1a1.9,1.9,0,0,1,.3-1l.7-.9a2.3,2.3,0,0,1,1.2-.6,3.3,3.3,0,0,1,1.5-.3l1.4.2,1.1.6a3.6,3.6,0,0,1,.7,1,5.1,5.1,0,0,1,.2,1.3v5.1c0,.2.1.4.1.6v.4c0,.2.1.3.1.4h-1.1Zm-3.3-.7,1-.2a1.9,1.9,0,0,0,.9-.4l.7-.6a1.8,1.8,0,0,0,.5-.7V61.4h-3.3l-1.1.5a1.7,1.7,0,0,0-.6.6,1.6,1.6,0,0,0-.3.9,1.4,1.4,0,0,0,.2.7.9.9,0,0,0,.4.6l.7.4Z"/><path class="cls-8" d="M228.2,57.5h-.7l-1,.2-.7.4-.6.7-.3.9v6.5h-1.1V56.6h1.1v1.5a2.9,2.9,0,0,1,1-1.2,3,3,0,0,1,1.6-.5h.7Z"/><path class="cls-8" d="M229.3,61.3a11.2,11.2,0,0,1,.2-2,5.3,5.3,0,0,1,.8-1.5,2.6,2.6,0,0,1,1.1-1,2.9,2.9,0,0,1,1.6-.4,4.7,4.7,0,0,1,1.7.4,3.4,3.4,0,0,1,1.2,1.2V52.6h1V66.1H236V64.9a2.9,2.9,0,0,1-1.2,1,3.4,3.4,0,0,1-1.8.4,2.8,2.8,0,0,1-1.5-.4,2.6,2.6,0,0,1-1.1-1,5.3,5.3,0,0,1-.8-1.5,11.1,11.1,0,0,1-.2-1.9Zm1.1.2a7.6,7.6,0,0,0,.1,1.5,5,5,0,0,0,.5,1.3,3.4,3.4,0,0,0,.9.8,2.4,2.4,0,0,0,1.2.3h1l.8-.4.6-.5a4.3,4.3,0,0,1,.4-.7V59.2a2.5,2.5,0,0,0-.4-.7l-.5-.6-.8-.4-1-.2a2.8,2.8,0,0,0-1.3.3,3.8,3.8,0,0,0-.9.9,3.3,3.3,0,0,0-.5,1.2,8.1,8.1,0,0,0-.1,1.6Z"/></svg>